<?xml version="1.0" encoding="UTF-8" standalone="no"?>
<svg xmlns:dc="http://purl.org/dc/elements/1.1/" xmlns:cc="http://creativecommons.org/ns#" xmlns:rdf="http://www.w3.org/1999/02/22-rdf-syntax-ns#" xmlns:svg="http://www.w3.org/2000/svg" xmlns="http://www.w3.org/2000/svg" version="1.1" id="svg4472" viewBox="0 0 399.99999 399.99999" height="112.88889mm" width="112.88889mm">
  <defs id="defs4474"/>
  <metadata id="metadata4477">
    <rdf:RDF>
      <cc:Work rdf:about="">
        <dc:format>image/svg+xml</dc:format>
        <dc:type rdf:resource="http://purl.org/dc/dcmitype/StillImage"/>
        <dc:title/>
      </cc:Work>
    </rdf:RDF>
  </metadata>
  <g transform="translate(-117.14284,-218.07649)" id="layer1">
    <g transform="translate(1224.2846,14.523505)" id="g4324">
      <g id="g4264" transform="translate(72.842674,-0.04875994)">
        <circle style="opacity:1;fill:#ffe680;fill-opacity:1;fill-rule:evenodd;stroke:#c8ab37;stroke-width:3.81893516;stroke-linecap:round;stroke-linejoin:bevel;stroke-miterlimit:4;stroke-dasharray:none;stroke-dashoffset:0;stroke-opacity:1" id="circle4229" cx="-979.98444" cy="403.60175" r="198.09053"/>
        <circle r="131.00742" cy="403.60175" cx="-979.98444" id="circle4189" style="opacity:1;fill:#502d16;fill-opacity:1;fill-rule:evenodd;stroke:none;stroke-width:2.27090263;stroke-linecap:round;stroke-linejoin:bevel;stroke-miterlimit:4;stroke-dasharray:none;stroke-dashoffset:0;stroke-opacity:1"/>
        <g style="fill:#c87137" transform="translate(-91.667448,10.15127)" id="g4518">
          <circle style="opacity:1;fill:#c87137;fill-opacity:1;fill-rule:evenodd;stroke:none;stroke-width:2.27090263;stroke-linecap:round;stroke-linejoin:bevel;stroke-miterlimit:4;stroke-dasharray:none;stroke-dashoffset:0;stroke-opacity:1" id="circle4408" cx="-689.89233" cy="783.88641" r="6.6763487" transform="matrix(0.8660254,0.5,-0.5,0.8660254,0,0)"/>
          <circle r="6.6763487" cy="785.90674" cx="-455.2673" id="circle4410" style="opacity:1;fill:#c87137;fill-opacity:1;fill-rule:evenodd;stroke:none;stroke-width:2.27090263;stroke-linecap:round;stroke-linejoin:bevel;stroke-miterlimit:4;stroke-dasharray:none;stroke-dashoffset:0;stroke-opacity:1" transform="matrix(0.8660254,0.5,-0.5,0.8660254,0,0)"/>
          <circle r="6.6763487" cy="571.32458" cx="667.58411" id="circle4414" style="opacity:1;fill:#c87137;fill-opacity:1;fill-rule:evenodd;stroke:none;stroke-width:2.27090263;stroke-linecap:round;stroke-linejoin:bevel;stroke-miterlimit:4;stroke-dasharray:none;stroke-dashoffset:0;stroke-opacity:1" transform="matrix(-0.5,0.8660254,-0.8660254,-0.5,0,0)"/>
          <circle style="opacity:1;fill:#c87137;fill-opacity:1;fill-rule:evenodd;stroke:none;stroke-width:2.27090263;stroke-linecap:round;stroke-linejoin:bevel;stroke-miterlimit:4;stroke-dasharray:none;stroke-dashoffset:0;stroke-opacity:1" id="circle4416" cx="902.20911" cy="573.34491" r="6.6763487" transform="matrix(-0.5,0.8660254,-0.8660254,-0.5,0,0)"/>
          <circle r="6.6763487" cy="392.44034" cx="-1005.6295" id="circle4422" style="opacity:1;fill:#c87137;fill-opacity:1;fill-rule:evenodd;stroke:none;stroke-width:2.27090263;stroke-linecap:round;stroke-linejoin:bevel;stroke-miterlimit:4;stroke-dasharray:none;stroke-dashoffset:0;stroke-opacity:1"/>
          <circle style="opacity:1;fill:#c87137;fill-opacity:1;fill-rule:evenodd;stroke:none;stroke-width:2.27090263;stroke-linecap:round;stroke-linejoin:bevel;stroke-miterlimit:4;stroke-dasharray:none;stroke-dashoffset:0;stroke-opacity:1" id="circle4424" cx="-771.00446" cy="394.46066" r="6.6763487"/>
          <circle style="opacity:1;fill:#c87137;fill-opacity:1;fill-rule:evenodd;stroke:none;stroke-width:2.27090263;stroke-linecap:round;stroke-linejoin:bevel;stroke-miterlimit:4;stroke-dasharray:none;stroke-dashoffset:0;stroke-opacity:1" id="circle4428" cx="276.13797" cy="887.06171" r="6.6763487" transform="matrix(0,1,-1,0,0,0)"/>
          <circle r="6.6763487" cy="889.08203" cx="510.763" id="circle4430" style="opacity:1;fill:#c87137;fill-opacity:1;fill-rule:evenodd;stroke:none;stroke-width:2.27090263;stroke-linecap:round;stroke-linejoin:bevel;stroke-miterlimit:4;stroke-dasharray:none;stroke-dashoffset:0;stroke-opacity:1" transform="matrix(0,1,-1,0,0,0)"/>
          <circle r="6.6763487" cy="964.97528" cx="-220.68803" id="circle4436" style="opacity:1;fill:#c87137;fill-opacity:1;fill-rule:evenodd;stroke:none;stroke-width:2.27090263;stroke-linecap:round;stroke-linejoin:bevel;stroke-miterlimit:4;stroke-dasharray:none;stroke-dashoffset:0;stroke-opacity:1" transform="matrix(0.5,0.8660254,-0.8660254,0.5,0,0)"/>
          <circle style="opacity:1;fill:#c87137;fill-opacity:1;fill-rule:evenodd;stroke:none;stroke-width:2.27090263;stroke-linecap:round;stroke-linejoin:bevel;stroke-miterlimit:4;stroke-dasharray:none;stroke-dashoffset:0;stroke-opacity:1" id="circle4438" cx="13.936995" cy="966.99561" r="6.6763487" transform="matrix(0.5,0.8660254,-0.8660254,0.5,0,0)"/>
          <circle style="opacity:1;fill:#c87137;fill-opacity:1;fill-rule:evenodd;stroke:none;stroke-width:2.27090263;stroke-linecap:round;stroke-linejoin:bevel;stroke-miterlimit:4;stroke-dasharray:none;stroke-dashoffset:0;stroke-opacity:1" id="circle4442" cx="848.67297" cy="102.12032" r="6.6763487" transform="matrix(-0.8660254,0.5,-0.5,-0.8660254,0,0)"/>
          <circle r="6.6763487" cy="104.14064" cx="1083.298" id="circle4444" style="opacity:1;fill:#c87137;fill-opacity:1;fill-rule:evenodd;stroke:none;stroke-width:2.27090263;stroke-linecap:round;stroke-linejoin:bevel;stroke-miterlimit:4;stroke-dasharray:none;stroke-dashoffset:0;stroke-opacity:1" transform="matrix(-0.8660254,0.5,-0.5,-0.8660254,0,0)"/>
        </g>
        <path id="path4256" transform="translate(-697.14176,203.551)" d="m -282.8418,47.550781 a 152.5,152.5 0 0 0 -152.5,152.499999 152.5,152.5 0 0 0 152.5,152.5 152.5,152.5 0 0 0 149.39649,-121.95898 l 26.01758,0 c 6.19476,0 11.183589,-4.98688 11.183589,-11.18164 l 0,-38.71875 c 0,-6.19477 -4.988829,-11.18164 -11.183589,-11.18164 l -26.17188,0 A 152.5,152.5 0 0 0 -282.8418,47.550781 Z m 0,21.492188 A 131.00742,131.00742 0 0 1 -151.83594,200.05078 131.00742,131.00742 0 0 1 -282.8418,331.05859 131.00742,131.00742 0 0 1 -413.84961,200.05078 131.00742,131.00742 0 0 1 -282.8418,69.042969 Z" style="opacity:1;fill:#fff6d5;fill-opacity:1;fill-rule:evenodd;stroke:#c8ab37;stroke-width:4;stroke-linecap:round;stroke-linejoin:bevel;stroke-miterlimit:4;stroke-dasharray:none;stroke-dashoffset:0;stroke-opacity:1"/>
      </g>
      <g id="g4216" transform="matrix(-0.10193514,-0.99479105,0.99479105,-0.10193514,-1345.4441,-1315.2253)">
        <path id="rect4207" d="m -1587.6095,90.615817 a 55.240271,37.902083 89.866861 0 0 -37.7746,55.328123 55.240271,37.902083 89.866861 0 0 29.5599,53.72152 l 0.5215,224.41217 c 0.01,3.35943 2.7184,6.05758 6.0778,6.04971 l 4.8071,-0.0112 c 3.3594,-0.008 6.0575,-2.71845 6.0497,-6.07779 l -0.5215,-224.42789 a 55.240271,37.902083 89.866861 0 0 29.31,-53.84273 55.240271,37.902083 89.866861 0 0 -38.0299,-55.151913 z" style="opacity:1;fill:#999999;fill-opacity:1;fill-rule:evenodd;stroke:#808080;stroke-width:3.19328928;stroke-linecap:round;stroke-linejoin:bevel;stroke-miterlimit:4;stroke-dasharray:none;stroke-dashoffset:0;stroke-opacity:1"/>
        <ellipse transform="matrix(-1,-7.7708388e-5,7.7708388e-5,-1,0,0)" ry="44.285713" rx="26.071428" cy="-140.80667" cx="1587.4712" id="path4212" style="opacity:1;fill:#b3b3b3;fill-opacity:1;fill-rule:evenodd;stroke:none;stroke-width:4;stroke-linecap:round;stroke-linejoin:bevel;stroke-miterlimit:4;stroke-dasharray:none;stroke-dashoffset:0;stroke-opacity:1"/>
      </g>
      <g id="g4281">
        <g transform="matrix(-0.06047525,0.50128893,-0.50128893,-0.06047525,-1016.2995,1174.1669)" id="g4180">
          <ellipse style="opacity:1;fill:#502d16;fill-opacity:1;fill-rule:evenodd;stroke:none;stroke-width:4;stroke-linecap:round;stroke-linejoin:bevel;stroke-miterlimit:4;stroke-dasharray:none;stroke-dashoffset:0;stroke-opacity:1" id="path4176" cx="-1162.822" cy="193.43106" rx="37.375645" ry="56.063465"/>
          <rect style="opacity:1;fill:#28170b;fill-opacity:1;fill-rule:evenodd;stroke:none;stroke-width:4;stroke-linecap:round;stroke-linejoin:bevel;stroke-miterlimit:4;stroke-dasharray:none;stroke-dashoffset:0;stroke-opacity:1" id="rect4178" width="8.7744799" height="111.65774" x="-1167.2092" y="137.60219" ry="7.5957651"/>
        </g>
        <g id="g4184" transform="matrix(0.42158627,-0.27787203,0.27787203,0.42158627,-579.04786,142.71419)">
          <ellipse ry="56.063465" rx="37.375645" cy="193.43106" cx="-1162.822" id="ellipse4186" style="opacity:1;fill:#502d16;fill-opacity:1;fill-rule:evenodd;stroke:none;stroke-width:4;stroke-linecap:round;stroke-linejoin:bevel;stroke-miterlimit:4;stroke-dasharray:none;stroke-dashoffset:0;stroke-opacity:1"/>
          <rect ry="7.5957651" y="137.60219" x="-1167.2092" height="111.65774" width="8.7744799" id="rect4188" style="opacity:1;fill:#28170b;fill-opacity:1;fill-rule:evenodd;stroke:none;stroke-width:4;stroke-linecap:round;stroke-linejoin:bevel;stroke-miterlimit:4;stroke-dasharray:none;stroke-dashoffset:0;stroke-opacity:1"/>
        </g>
        <g transform="matrix(0.38120567,0.33110434,-0.33110434,0.38120567,-554.69271,850.31285)" id="g4190">
          <ellipse style="opacity:1;fill:#502d16;fill-opacity:1;fill-rule:evenodd;stroke:none;stroke-width:4;stroke-linecap:round;stroke-linejoin:bevel;stroke-miterlimit:4;stroke-dasharray:none;stroke-dashoffset:0;stroke-opacity:1" id="ellipse4192" cx="-1162.822" cy="193.43106" rx="37.375645" ry="56.063465"/>
          <rect style="opacity:1;fill:#28170b;fill-opacity:1;fill-rule:evenodd;stroke:none;stroke-width:4;stroke-linecap:round;stroke-linejoin:bevel;stroke-miterlimit:4;stroke-dasharray:none;stroke-dashoffset:0;stroke-opacity:1" id="rect4194" width="8.7744799" height="111.65774" x="-1167.2092" y="137.60219" ry="7.5957651"/>
        </g>
      </g>
    </g>
  </g>
</svg>