<?xml version="1.0" encoding="UTF-8" standalone="no"?>
<svg
   xmlns:dc="http://purl.org/dc/elements/1.1/"
   xmlns:cc="http://creativecommons.org/ns#"
   xmlns:rdf="http://www.w3.org/1999/02/22-rdf-syntax-ns#"
   xmlns:svg="http://www.w3.org/2000/svg"
   xmlns="http://www.w3.org/2000/svg"
   version="1.1"
   id="svg3733"
   viewBox="0 0 399.99999 399.99999"
   height="400"
   width="400">
  <defs
     id="defs3735" />
  <metadata
     id="metadata3738">
    <rdf:RDF>
      <cc:Work
         rdf:about="">
        <dc:format>image/svg+xml</dc:format>
        <dc:type
           rdf:resource="http://purl.org/dc/dcmitype/StillImage" />
        <dc:title></dc:title>
      </cc:Work>
    </rdf:RDF>
  </metadata>
  <g
     transform="translate(-179.99997,-260.93363)"
     id="layer1">
    <circle
       style="opacity:1;fill:#ffe680;fill-opacity:1;fill-rule:evenodd;stroke:#c8ab37;stroke-width:3.81893516;stroke-linecap:round;stroke-linejoin:bevel;stroke-miterlimit:4;stroke-dasharray:none;stroke-dashoffset:0;stroke-opacity:1"
       id="circle4229"
       cx="379.99997"
       cy="460.93362"
       r="198.09053" />
    <circle
       r="131.00742"
       cy="460.93362"
       cx="379.99997"
       id="circle4189"
       style="opacity:1;fill:#502d16;fill-opacity:1;fill-rule:evenodd;stroke:none;stroke-width:2.27090263;stroke-linecap:round;stroke-linejoin:bevel;stroke-miterlimit:4;stroke-dasharray:none;stroke-dashoffset:0;stroke-opacity:1" />
    <circle
       transform="matrix(0.8660254,0.5,-0.5,0.8660254,0,0)"
       r="6.6763487"
       cy="208.17003"
       cx="442.24399"
       id="circle4408"
       style="opacity:1;fill:#c87137;fill-opacity:1;fill-rule:evenodd;stroke:none;stroke-width:2.27090263;stroke-linecap:round;stroke-linejoin:bevel;stroke-miterlimit:4;stroke-dasharray:none;stroke-dashoffset:0;stroke-opacity:1" />
    <circle
       transform="matrix(0.8660254,0.5,-0.5,0.8660254,0,0)"
       style="opacity:1;fill:#c87137;fill-opacity:1;fill-rule:evenodd;stroke:none;stroke-width:2.27090263;stroke-linecap:round;stroke-linejoin:bevel;stroke-miterlimit:4;stroke-dasharray:none;stroke-dashoffset:0;stroke-opacity:1"
       id="circle4410"
       cx="676.86902"
       cy="210.19035"
       r="6.6763487" />
    <circle
       transform="matrix(-0.5,0.8660254,-0.8660254,-0.5,0,0)"
       style="opacity:1;fill:#c87137;fill-opacity:1;fill-rule:evenodd;stroke:none;stroke-width:2.27090263;stroke-linecap:round;stroke-linejoin:bevel;stroke-miterlimit:4;stroke-dasharray:none;stroke-dashoffset:0;stroke-opacity:1"
       id="circle4414"
       cx="91.867729"
       cy="-560.81171"
       r="6.6763487" />
    <circle
       transform="matrix(-0.5,0.8660254,-0.8660254,-0.5,0,0)"
       r="6.6763487"
       cy="-558.79138"
       cx="326.49274"
       id="circle4416"
       style="opacity:1;fill:#c87137;fill-opacity:1;fill-rule:evenodd;stroke:none;stroke-width:2.27090263;stroke-linecap:round;stroke-linejoin:bevel;stroke-miterlimit:4;stroke-dasharray:none;stroke-dashoffset:0;stroke-opacity:1" />
    <circle
       style="opacity:1;fill:#c87137;fill-opacity:1;fill-rule:evenodd;stroke:none;stroke-width:2.27090263;stroke-linecap:round;stroke-linejoin:bevel;stroke-miterlimit:4;stroke-dasharray:none;stroke-dashoffset:0;stroke-opacity:1"
       id="circle4422"
       cx="262.68747"
       cy="459.92349"
       r="6.6763487" />
    <circle
       r="6.6763487"
       cy="461.94382"
       cx="497.31253"
       id="circle4424"
       style="opacity:1;fill:#c87137;fill-opacity:1;fill-rule:evenodd;stroke:none;stroke-width:2.27090263;stroke-linecap:round;stroke-linejoin:bevel;stroke-miterlimit:4;stroke-dasharray:none;stroke-dashoffset:0;stroke-opacity:1" />
    <circle
       transform="matrix(0,1,-1,0,0,0)"
       r="6.6763487"
       cy="-381.25528"
       cx="343.62112"
       id="circle4428"
       style="opacity:1;fill:#c87137;fill-opacity:1;fill-rule:evenodd;stroke:none;stroke-width:2.27090263;stroke-linecap:round;stroke-linejoin:bevel;stroke-miterlimit:4;stroke-dasharray:none;stroke-dashoffset:0;stroke-opacity:1" />
    <circle
       transform="matrix(0,1,-1,0,0,0)"
       style="opacity:1;fill:#c87137;fill-opacity:1;fill-rule:evenodd;stroke:none;stroke-width:2.27090263;stroke-linecap:round;stroke-linejoin:bevel;stroke-miterlimit:4;stroke-dasharray:none;stroke-dashoffset:0;stroke-opacity:1"
       id="circle4430"
       cx="578.24615"
       cy="-379.23495"
       r="6.6763487" />
    <circle
       transform="matrix(0.5,0.8660254,-0.8660254,0.5,0,0)"
       style="opacity:1;fill:#c87137;fill-opacity:1;fill-rule:evenodd;stroke:none;stroke-width:2.27090263;stroke-linecap:round;stroke-linejoin:bevel;stroke-miterlimit:4;stroke-dasharray:none;stroke-dashoffset:0;stroke-opacity:1"
       id="circle4436"
       cx="471.9126"
       cy="-99.677887"
       r="6.6763487" />
    <circle
       transform="matrix(0.5,0.8660254,-0.8660254,0.5,0,0)"
       r="6.6763487"
       cy="-97.657562"
       cx="706.5376"
       id="circle4438"
       style="opacity:1;fill:#c87137;fill-opacity:1;fill-rule:evenodd;stroke:none;stroke-width:2.27090263;stroke-linecap:round;stroke-linejoin:bevel;stroke-miterlimit:4;stroke-dasharray:none;stroke-dashoffset:0;stroke-opacity:1" />
    <circle
       transform="matrix(-0.8660254,0.5,-0.5,-0.8660254,0,0)"
       r="6.6763487"
       cy="-590.48029"
       cx="-215.98019"
       id="circle4442"
       style="opacity:1;fill:#c87137;fill-opacity:1;fill-rule:evenodd;stroke:none;stroke-width:2.27090263;stroke-linecap:round;stroke-linejoin:bevel;stroke-miterlimit:4;stroke-dasharray:none;stroke-dashoffset:0;stroke-opacity:1" />
    <circle
       transform="matrix(-0.8660254,0.5,-0.5,-0.8660254,0,0)"
       style="opacity:1;fill:#c87137;fill-opacity:1;fill-rule:evenodd;stroke:none;stroke-width:2.27090263;stroke-linecap:round;stroke-linejoin:bevel;stroke-miterlimit:4;stroke-dasharray:none;stroke-dashoffset:0;stroke-opacity:1"
       id="circle4444"
       cx="18.644806"
       cy="-588.45996"
       r="6.6763487" />
    <path
       id="path4256"
       d="m 380.00084,308.43366 a 152.5,152.5 0 0 0 -152.5,152.5 152.5,152.5 0 0 0 152.5,152.5 152.5,152.5 0 0 0 149.39649,-121.95898 l 26.01758,0 c 6.19476,0 11.18359,-4.98688 11.18359,-11.18164 l 0,-38.71875 c 0,-6.19477 -4.98883,-11.18164 -11.18359,-11.18164 l -26.17188,0 A 152.5,152.5 0 0 0 380.00084,308.43366 Z m 0,21.49219 A 131.00742,131.00742 0 0 1 511.0067,460.93366 131.00742,131.00742 0 0 1 380.00084,591.94147 131.00742,131.00742 0 0 1 248.99303,460.93366 131.00742,131.00742 0 0 1 380.00084,329.92585 Z"
       style="opacity:1;fill:#fff6d5;fill-opacity:1;fill-rule:evenodd;stroke:#c8ab37;stroke-width:4;stroke-linecap:round;stroke-linejoin:bevel;stroke-miterlimit:4;stroke-dasharray:none;stroke-dashoffset:0;stroke-opacity:1" />
    <path
       id="rect4207"
       d="m 193.6746,312.25809 a 37.902083,55.240271 84.016246 0 0 58.89048,31.93795 37.902083,55.240271 84.016246 0 0 50.4285,-34.88204 l 223.19005,-23.39426 c 3.34092,-0.3524 5.74893,-3.32172 5.39866,-6.66282 l -0.50115,-4.78092 c -0.3504,-3.34109 -3.32177,-5.74884 -6.66281,-5.39865 l -223.2057,23.39587 a 37.902083,55.240271 84.016246 0 0 -56.54998,-23.66886 37.902083,55.240271 84.016246 0 0 -50.98805,43.45373 z"
       style="opacity:1;fill:#999999;fill-opacity:1;fill-rule:evenodd;stroke:#808080;stroke-width:3.19328928;stroke-linecap:round;stroke-linejoin:bevel;stroke-miterlimit:4;stroke-dasharray:none;stroke-dashoffset:0;stroke-opacity:1" />
    <ellipse
       transform="matrix(0.10185784,0.99479896,-0.99479896,0.10185784,0,0)"
       ry="44.285713"
       rx="26.071428"
       cy="-210.92885"
       cx="330.23004"
       id="path4212"
       style="opacity:1;fill:#b3b3b3;fill-opacity:1;fill-rule:evenodd;stroke:none;stroke-width:4;stroke-linecap:round;stroke-linejoin:bevel;stroke-miterlimit:4;stroke-dasharray:none;stroke-dashoffset:0;stroke-opacity:1" />
    <ellipse
       transform="matrix(-0.11977109,0.99280153,-0.99280153,-0.11977109,0,0)"
       ry="28.307768"
       rx="18.871845"
       cy="-318.72842"
       cx="603.10687"
       id="path4176"
       style="opacity:1;fill:#502d16;fill-opacity:1;fill-rule:evenodd;stroke:none;stroke-width:4;stroke-linecap:round;stroke-linejoin:bevel;stroke-miterlimit:4;stroke-dasharray:none;stroke-dashoffset:0;stroke-opacity:1" />
    <rect
       transform="matrix(-0.11977109,0.99280153,-0.99280153,-0.11977109,0,0)"
       ry="3.8352811"
       y="-346.91776"
       x="600.89166"
       height="56.378628"
       width="4.4304419"
       id="rect4178"
       style="opacity:1;fill:#28170b;fill-opacity:1;fill-rule:evenodd;stroke:none;stroke-width:4;stroke-linecap:round;stroke-linejoin:bevel;stroke-miterlimit:4;stroke-dasharray:none;stroke-dashoffset:0;stroke-opacity:1" />
    <ellipse
       transform="matrix(0.8349506,-0.55032489,0.55032489,0.8349506,0,0)"
       style="opacity:1;fill:#502d16;fill-opacity:1;fill-rule:evenodd;stroke:none;stroke-width:4;stroke-linecap:round;stroke-linejoin:bevel;stroke-miterlimit:4;stroke-dasharray:none;stroke-dashoffset:0;stroke-opacity:1"
       id="ellipse4186"
       cx="-106.03008"
       cy="654.41888"
       rx="18.871845"
       ry="28.307768" />
    <rect
       transform="matrix(0.8349506,-0.55032489,0.55032489,0.8349506,0,0)"
       style="opacity:1;fill:#28170b;fill-opacity:1;fill-rule:evenodd;stroke:none;stroke-width:4;stroke-linecap:round;stroke-linejoin:bevel;stroke-miterlimit:4;stroke-dasharray:none;stroke-dashoffset:0;stroke-opacity:1"
       id="rect4188"
       width="4.4304419"
       height="56.378628"
       x="-108.24528"
       y="626.22955"
       ry="3.8352811" />
    <ellipse
       transform="matrix(0.75497692,0.65575136,-0.65575136,0.75497692,0,0)"
       ry="28.307766"
       rx="18.871845"
       cy="302.65112"
       cx="561.06702"
       id="ellipse4192"
       style="opacity:1;fill:#502d16;fill-opacity:1;fill-rule:evenodd;stroke:none;stroke-width:4;stroke-linecap:round;stroke-linejoin:bevel;stroke-miterlimit:4;stroke-dasharray:none;stroke-dashoffset:0;stroke-opacity:1" />
    <rect
       transform="matrix(0.75497692,0.65575136,-0.65575136,0.75497692,0,0)"
       ry="3.8352811"
       y="274.46182"
       x="558.85181"
       height="56.378628"
       width="4.4304419"
       id="rect4194"
       style="opacity:1;fill:#28170b;fill-opacity:1;fill-rule:evenodd;stroke:none;stroke-width:4;stroke-linecap:round;stroke-linejoin:bevel;stroke-miterlimit:4;stroke-dasharray:none;stroke-dashoffset:0;stroke-opacity:1" />
  </g>
</svg>
