<?xml version="1.0" encoding="UTF-8" standalone="no"?>
<svg
   xmlns:dc="http://purl.org/dc/elements/1.1/"
   xmlns:cc="http://creativecommons.org/ns#"
   xmlns:rdf="http://www.w3.org/1999/02/22-rdf-syntax-ns#"
   xmlns:svg="http://www.w3.org/2000/svg"
   xmlns="http://www.w3.org/2000/svg"
   viewBox="0 0 399.99999 399.99999"
   version="1.1"
   width="112.89mm"
   height="112.89mm"
   id="svg3440">
  <metadata
     id="metadata24">
    <rdf:RDF>
      <cc:Work
         rdf:about="">
        <dc:format>image/svg+xml</dc:format>
        <dc:type
           rdf:resource="http://purl.org/dc/dcmitype/StillImage" />
        <dc:title></dc:title>
      </cc:Work>
    </rdf:RDF>
  </metadata>
  <defs
     id="defs22" />
  <g
     transform="translate(-182.86 -209.51)"
     fill-rule="evenodd"
     id="layer1">
    <rect
       fill="#ffb380"
       x="182.86"
       y="209.51"
       width="400"
       height="400"
       ry="72.258"
       id="rect4186" />
    <ellipse
       fill="#a00"
       cx="382.86"
       cy="409.51"
       ry="135.84"
       rx="135.45"
       id="circle4184" />
    <g
       id="g7"
       fill="#fff">
      <circle
         r="6.6763"
         cx="419.3"
         cy="163.2"
         transform="rotate(30)"
         id="circle4223" />
      <circle
         r="6.6763"
         cy="165.22"
         transform="rotate(30)"
         cx="653.92"
         id="circle4225" />
      <circle
         r="6.6763"
         cy="-537.86"
         transform="rotate(120)"
         cx="46.898"
         id="circle4230" />
      <circle
         r="6.6763"
         cx="281.52"
         cy="-535.84"
         transform="rotate(120)"
         id="circle4232" />
      <circle
         r="6.6763"
         cy="409.51"
         cx="265.3"
         id="circle4197" />
      <circle
         r="6.6763"
         cx="499.92"
         cy="411.53"
         id="circle4199" />
      <circle
         r="6.6763"
         cx="293.2"
         cy="-383.87"
         transform="rotate(90)"
         id="circle4207" />
      <circle
         r="6.6763"
         cy="-381.85"
         transform="rotate(90)"
         cx="527.83"
         id="circle4209" />
      <circle
         r="6.6763"
         cy="-127.15"
         transform="rotate(60.001)"
         cx="429.55"
         id="circle4238" />
      <circle
         r="6.6763"
         cx="664.18"
         cy="-125.13"
         transform="rotate(60.001)"
         id="circle4240" />
      <circle
         r="6.6763"
         cx="-243.45"
         cy="-548.12"
         transform="rotate(150)"
         id="circle4244" />
      <circle
         r="6.6763"
         cy="-546.1"
         transform="rotate(150)"
         cx="-8.8265"
         id="circle4246" />
    </g>
    <path
       fill="#8a0"
       stroke-width="2.2356"
       stroke-linecap="round"
       stroke="#2d5016"
       d="m376.19 275.42c-17.508-12.428-36.003-13.51-54.14-18.716 8.6543 13.39 24.209 24.276 37.468 31.38-23.457 19.125-25.342 30.573-33.328 44.341 16.163-8.4136 32.086-17.221 43.483-33.46 3.0006 18.199 16.854 25.932 28.381 35.908 3.6732-10.607 9.503-20.394 5.9887-33.732 12.275 15.117 28.101 19.105 42.962 26.115-7.0632-14.945-16.009-28.528-32.026-36.996 20.706-8.7449 28.716-15.108 42.415-25.478-23.951 1.5293-48.52 1.6521-68.813 11.519l10.776-24.942c-7.3378-6.0513-7.9849-6.4381-18.487-6.2567z"
       id="path4198" />
  </g>
</svg>
